<svg width="378" height="378" viewBox="0 0 378 378" fill="none" xmlns="http://www.w3.org/2000/svg">
<g clip-path="url(#clip0_107_758)">
<path d="M378 0H0V378H378V0Z" fill="white"/>
<path d="M33.6477 23.625H23.625V33.6477H33.6477V23.625Z" fill="black"/>
<path d="M43.6705 23.625H33.6477V33.6477H43.6705V23.625Z" fill="black"/>
<path d="M53.6932 23.625H43.6705V33.6477H53.6932V23.625Z" fill="black"/>
<path d="M63.7159 23.625H53.6932V33.6477H63.7159V23.625Z" fill="black"/>
<path d="M73.7386 23.625H63.7159V33.6477H73.7386V23.625Z" fill="black"/>
<path d="M83.7614 23.625H73.7386V33.6477H83.7614V23.625Z" fill="black"/>
<path d="M93.7841 23.625H83.7614V33.6477H93.7841V23.625Z" fill="black"/>
<path d="M113.83 23.625H103.807V33.6477H113.83V23.625Z" fill="black"/>
<path d="M133.875 23.625H123.852V33.6477H133.875V23.625Z" fill="black"/>
<path d="M163.943 23.625H153.92V33.6477H163.943V23.625Z" fill="black"/>
<path d="M204.034 23.625H194.011V33.6477H204.034V23.625Z" fill="black"/>
<path d="M244.125 23.625H234.102V33.6477H244.125V23.625Z" fill="black"/>
<path d="M274.193 23.625H264.17V33.6477H274.193V23.625Z" fill="black"/>
<path d="M294.239 23.625H284.216V33.6477H294.239V23.625Z" fill="black"/>
<path d="M304.261 23.625H294.239V33.6477H304.261V23.625Z" fill="black"/>
<path d="M314.284 23.625H304.261V33.6477H314.284V23.625Z" fill="black"/>
<path d="M324.307 23.625H314.284V33.6477H324.307V23.625Z" fill="black"/>
<path d="M334.33 23.625H324.307V33.6477H334.33V23.625Z" fill="black"/>
<path d="M344.352 23.625H334.33V33.6477H344.352V23.625Z" fill="black"/>
<path d="M354.375 23.625H344.352V33.6477H354.375V23.625Z" fill="black"/>
<path d="M33.6477 33.6477H23.625V43.6705H33.6477V33.6477Z" fill="black"/>
<path d="M93.7841 33.6477H83.7614V43.6705H93.7841V33.6477Z" fill="black"/>
<path d="M153.92 33.6477H143.898V43.6705H153.92V33.6477Z" fill="black"/>
<path d="M183.989 33.6477H173.966V43.6705H183.989V33.6477Z" fill="black"/>
<path d="M224.08 33.6477H214.057V43.6705H224.08V33.6477Z" fill="black"/>
<path d="M274.193 33.6477H264.17V43.6705H274.193V33.6477Z" fill="black"/>
<path d="M294.239 33.6477H284.216V43.6705H294.239V33.6477Z" fill="black"/>
<path d="M354.375 33.6477H344.352V43.6705H354.375V33.6477Z" fill="black"/>
<path d="M33.6477 43.6705H23.625V53.6932H33.6477V43.6705Z" fill="black"/>
<path d="M53.6932 43.6705H43.6705V53.6932H53.6932V43.6705Z" fill="black"/>
<path d="M63.7159 43.6705H53.6932V53.6932H63.7159V43.6705Z" fill="black"/>
<path d="M73.7386 43.6705H63.7159V53.6932H73.7386V43.6705Z" fill="black"/>
<path d="M93.7841 43.6705H83.7614V53.6932H93.7841V43.6705Z" fill="black"/>
<path d="M143.898 43.6705H133.875V53.6932H143.898V43.6705Z" fill="black"/>
<path d="M163.943 43.6705H153.92V53.6932H163.943V43.6705Z" fill="black"/>
<path d="M173.966 43.6705H163.943V53.6932H173.966V43.6705Z" fill="black"/>
<path d="M183.989 43.6705H173.966V53.6932H183.989V43.6705Z" fill="black"/>
<path d="M204.034 43.6705H194.011V53.6932H204.034V43.6705Z" fill="black"/>
<path d="M224.08 43.6705H214.057V53.6932H224.08V43.6705Z" fill="black"/>
<path d="M234.102 43.6705H224.08V53.6932H234.102V43.6705Z" fill="black"/>
<path d="M244.125 43.6705H234.102V53.6932H244.125V43.6705Z" fill="black"/>
<path d="M274.193 43.6705H264.17V53.6932H274.193V43.6705Z" fill="black"/>
<path d="M294.239 43.6705H284.216V53.6932H294.239V43.6705Z" fill="black"/>
<path d="M314.284 43.6705H304.261V53.6932H314.284V43.6705Z" fill="black"/>
<path d="M324.307 43.6705H314.284V53.6932H324.307V43.6705Z" fill="black"/>
<path d="M334.33 43.6705H324.307V53.6932H334.33V43.6705Z" fill="black"/>
<path d="M354.375 43.6705H344.352V53.6932H354.375V43.6705Z" fill="black"/>
<path d="M33.6477 53.6932H23.625V63.7159H33.6477V53.6932Z" fill="black"/>
<path d="M53.6932 53.6932H43.6705V63.7159H53.6932V53.6932Z" fill="black"/>
<path d="M63.7159 53.6932H53.6932V63.7159H63.7159V53.6932Z" fill="black"/>
<path d="M73.7386 53.6932H63.7159V63.7159H73.7386V53.6932Z" fill="black"/>
<path d="M93.7841 53.6932H83.7614V63.7159H93.7841V53.6932Z" fill="black"/>
<path d="M143.898 53.6932H133.875V63.7159H143.898V53.6932Z" fill="black"/>
<path d="M173.966 53.6932H163.943V63.7159H173.966V53.6932Z" fill="black"/>
<path d="M234.102 53.6932H224.08V63.7159H234.102V53.6932Z" fill="black"/>
<path d="M244.125 53.6932H234.102V63.7159H244.125V53.6932Z" fill="black"/>
<path d="M254.148 53.6932H244.125V63.7159H254.148V53.6932Z" fill="black"/>
<path d="M264.17 53.6932H254.148V63.7159H264.17V53.6932Z" fill="black"/>
<path d="M294.239 53.6932H284.216V63.7159H294.239V53.6932Z" fill="black"/>
<path d="M314.284 53.6932H304.261V63.7159H314.284V53.6932Z" fill="black"/>
<path d="M324.307 53.6932H314.284V63.7159H324.307V53.6932Z" fill="black"/>
<path d="M334.33 53.6932H324.307V63.7159H334.33V53.6932Z" fill="black"/>
<path d="M354.375 53.6932H344.352V63.7159H354.375V53.6932Z" fill="black"/>
<path d="M33.6477 63.7159H23.625V73.7386H33.6477V63.7159Z" fill="black"/>
<path d="M53.6932 63.7159H43.6705V73.7386H53.6932V63.7159Z" fill="black"/>
<path d="M63.7159 63.7159H53.6932V73.7386H63.7159V63.7159Z" fill="black"/>
<path d="M73.7386 63.7159H63.7159V73.7386H73.7386V63.7159Z" fill="black"/>
<path d="M93.7841 63.7159H83.7614V73.7386H93.7841V63.7159Z" fill="black"/>
<path d="M113.83 63.7159H103.807V73.7386H113.83V63.7159Z" fill="black"/>
<path d="M123.852 63.7159H113.83V73.7386H123.852V63.7159Z" fill="black"/>
<path d="M153.92 63.7159H143.898V73.7386H153.92V63.7159Z" fill="black"/>
<path d="M173.966 63.7159H163.943V73.7386H173.966V63.7159Z" fill="black"/>
<path d="M183.989 63.7159H173.966V73.7386H183.989V63.7159Z" fill="black"/>
<path d="M194.011 63.7159H183.989V73.7386H194.011V63.7159Z" fill="black"/>
<path d="M214.057 63.7159H204.034V73.7386H214.057V63.7159Z" fill="black"/>
<path d="M224.08 63.7159H214.057V73.7386H224.08V63.7159Z" fill="black"/>
<path d="M244.125 63.7159H234.102V73.7386H244.125V63.7159Z" fill="black"/>
<path d="M254.148 63.7159H244.125V73.7386H254.148V63.7159Z" fill="black"/>
<path d="M274.193 63.7159H264.17V73.7386H274.193V63.7159Z" fill="black"/>
<path d="M294.239 63.7159H284.216V73.7386H294.239V63.7159Z" fill="black"/>
<path d="M314.284 63.7159H304.261V73.7386H314.284V63.7159Z" fill="black"/>
<path d="M324.307 63.7159H314.284V73.7386H324.307V63.7159Z" fill="black"/>
<path d="M334.33 63.7159H324.307V73.7386H334.33V63.7159Z" fill="black"/>
<path d="M354.375 63.7159H344.352V73.7386H354.375V63.7159Z" fill="black"/>
<path d="M33.6477 73.7386H23.625V83.7614H33.6477V73.7386Z" fill="black"/>
<path d="M93.7841 73.7386H83.7614V83.7614H93.7841V73.7386Z" fill="black"/>
<path d="M133.875 73.7386H123.852V83.7614H133.875V73.7386Z" fill="black"/>
<path d="M153.92 73.7386H143.898V83.7614H153.92V73.7386Z" fill="black"/>
<path d="M163.943 73.7386H153.92V83.7614H163.943V73.7386Z" fill="black"/>
<path d="M173.966 73.7386H163.943V83.7614H173.966V73.7386Z" fill="black"/>
<path d="M183.989 73.7386H173.966V83.7614H183.989V73.7386Z" fill="black"/>
<path d="M214.057 73.7386H204.034V83.7614H214.057V73.7386Z" fill="black"/>
<path d="M254.148 73.7386H244.125V83.7614H254.148V73.7386Z" fill="black"/>
<path d="M294.239 73.7386H284.216V83.7614H294.239V73.7386Z" fill="black"/>
<path d="M354.375 73.7386H344.352V83.7614H354.375V73.7386Z" fill="black"/>
<path d="M33.6477 83.7614H23.625V93.7841H33.6477V83.7614Z" fill="black"/>
<path d="M43.6705 83.7614H33.6477V93.7841H43.6705V83.7614Z" fill="black"/>
<path d="M53.6932 83.7614H43.6705V93.7841H53.6932V83.7614Z" fill="black"/>
<path d="M63.7159 83.7614H53.6932V93.7841H63.7159V83.7614Z" fill="black"/>
<path d="M73.7386 83.7614H63.7159V93.7841H73.7386V83.7614Z" fill="black"/>
<path d="M83.7614 83.7614H73.7386V93.7841H83.7614V83.7614Z" fill="black"/>
<path d="M93.7841 83.7614H83.7614V93.7841H93.7841V83.7614Z" fill="black"/>
<path d="M113.83 83.7614H103.807V93.7841H113.83V83.7614Z" fill="black"/>
<path d="M133.875 83.7614H123.852V93.7841H133.875V83.7614Z" fill="black"/>
<path d="M153.92 83.7614H143.898V93.7841H153.92V83.7614Z" fill="black"/>
<path d="M173.966 83.7614H163.943V93.7841H173.966V83.7614Z" fill="black"/>
<path d="M194.011 83.7614H183.989V93.7841H194.011V83.7614Z" fill="black"/>
<path d="M214.057 83.7614H204.034V93.7841H214.057V83.7614Z" fill="black"/>
<path d="M234.102 83.7614H224.08V93.7841H234.102V83.7614Z" fill="black"/>
<path d="M254.148 83.7614H244.125V93.7841H254.148V83.7614Z" fill="black"/>
<path d="M274.193 83.7614H264.17V93.7841H274.193V83.7614Z" fill="black"/>
<path d="M294.239 83.7614H284.216V93.7841H294.239V83.7614Z" fill="black"/>
<path d="M304.261 83.7614H294.239V93.7841H304.261V83.7614Z" fill="black"/>
<path d="M314.284 83.7614H304.261V93.7841H314.284V83.7614Z" fill="black"/>
<path d="M324.307 83.7614H314.284V93.7841H324.307V83.7614Z" fill="black"/>
<path d="M334.33 83.7614H324.307V93.7841H334.33V83.7614Z" fill="black"/>
<path d="M344.352 83.7614H334.33V93.7841H344.352V83.7614Z" fill="black"/>
<path d="M354.375 83.7614H344.352V93.7841H354.375V83.7614Z" fill="black"/>
<path d="M113.83 93.7841H103.807V103.807H113.83V93.7841Z" fill="black"/>
<path d="M183.989 93.7841H173.966V103.807H183.989V93.7841Z" fill="black"/>
<path d="M204.034 93.7841H194.011V103.807H204.034V93.7841Z" fill="black"/>
<path d="M214.057 93.7841H204.034V103.807H214.057V93.7841Z" fill="black"/>
<path d="M224.08 93.7841H214.057V103.807H224.08V93.7841Z" fill="black"/>
<path d="M254.148 93.7841H244.125V103.807H254.148V93.7841Z" fill="black"/>
<path d="M33.6477 103.807H23.625V113.83H33.6477V103.807Z" fill="black"/>
<path d="M63.7159 103.807H53.6932V113.83H63.7159V103.807Z" fill="black"/>
<path d="M73.7386 103.807H63.7159V113.83H73.7386V103.807Z" fill="black"/>
<path d="M83.7614 103.807H73.7386V113.83H83.7614V103.807Z" fill="black"/>
<path d="M93.7841 103.807H83.7614V113.83H93.7841V103.807Z" fill="black"/>
<path d="M103.807 103.807H93.7841V113.83H103.807V103.807Z" fill="black"/>
<path d="M113.83 103.807H103.807V113.83H113.83V103.807Z" fill="black"/>
<path d="M133.875 103.807H123.852V113.83H133.875V103.807Z" fill="black"/>
<path d="M163.943 103.807H153.92V113.83H163.943V103.807Z" fill="black"/>
<path d="M194.011 103.807H183.989V113.83H194.011V103.807Z" fill="black"/>
<path d="M204.034 103.807H194.011V113.83H204.034V103.807Z" fill="black"/>
<path d="M214.057 103.807H204.034V113.83H214.057V103.807Z" fill="black"/>
<path d="M224.08 103.807H214.057V113.83H224.08V103.807Z" fill="black"/>
<path d="M234.102 103.807H224.08V113.83H234.102V103.807Z" fill="black"/>
<path d="M274.193 103.807H264.17V113.83H274.193V103.807Z" fill="black"/>
<path d="M284.216 103.807H274.193V113.83H284.216V103.807Z" fill="black"/>
<path d="M294.239 103.807H284.216V113.83H294.239V103.807Z" fill="black"/>
<path d="M314.284 103.807H304.261V113.83H314.284V103.807Z" fill="black"/>
<path d="M354.375 103.807H344.352V113.83H354.375V103.807Z" fill="black"/>
<path d="M33.6477 113.83H23.625V123.852H33.6477V113.83Z" fill="black"/>
<path d="M53.6932 113.83H43.6705V123.852H53.6932V113.83Z" fill="black"/>
<path d="M63.7159 113.83H53.6932V123.852H63.7159V113.83Z" fill="black"/>
<path d="M73.7386 113.83H63.7159V123.852H73.7386V113.83Z" fill="black"/>
<path d="M83.7614 113.83H73.7386V123.852H83.7614V113.83Z" fill="black"/>
<path d="M103.807 113.83H93.7841V123.852H103.807V113.83Z" fill="black"/>
<path d="M113.83 113.83H103.807V123.852H113.83V113.83Z" fill="black"/>
<path d="M123.852 113.83H113.83V123.852H123.852V113.83Z" fill="black"/>
<path d="M153.92 113.83H143.898V123.852H153.92V113.83Z" fill="black"/>
<path d="M194.011 113.83H183.989V123.852H194.011V113.83Z" fill="black"/>
<path d="M204.034 113.83H194.011V123.852H204.034V113.83Z" fill="black"/>
<path d="M244.125 113.83H234.102V123.852H244.125V113.83Z" fill="black"/>
<path d="M254.148 113.83H244.125V123.852H254.148V113.83Z" fill="black"/>
<path d="M284.216 113.83H274.193V123.852H284.216V113.83Z" fill="black"/>
<path d="M324.307 113.83H314.284V123.852H324.307V113.83Z" fill="black"/>
<path d="M354.375 113.83H344.352V123.852H354.375V113.83Z" fill="black"/>
<path d="M33.6477 123.852H23.625V133.875H33.6477V123.852Z" fill="black"/>
<path d="M53.6932 123.852H43.6705V133.875H53.6932V123.852Z" fill="black"/>
<path d="M63.7159 123.852H53.6932V133.875H63.7159V123.852Z" fill="black"/>
<path d="M93.7841 123.852H83.7614V133.875H93.7841V123.852Z" fill="black"/>
<path d="M103.807 123.852H93.7841V133.875H103.807V123.852Z" fill="black"/>
<path d="M123.852 123.852H113.83V133.875H123.852V123.852Z" fill="black"/>
<path d="M133.875 123.852H123.852V133.875H133.875V123.852Z" fill="black"/>
<path d="M153.92 123.852H143.898V133.875H153.92V123.852Z" fill="black"/>
<path d="M163.943 123.852H153.92V133.875H163.943V123.852Z" fill="black"/>
<path d="M173.966 123.852H163.943V133.875H173.966V123.852Z" fill="black"/>
<path d="M194.011 123.852H183.989V133.875H194.011V123.852Z" fill="black"/>
<path d="M264.17 123.852H254.148V133.875H264.17V123.852Z" fill="black"/>
<path d="M274.193 123.852H264.17V133.875H274.193V123.852Z" fill="black"/>
<path d="M294.239 123.852H284.216V133.875H294.239V123.852Z" fill="black"/>
<path d="M304.261 123.852H294.239V133.875H304.261V123.852Z" fill="black"/>
<path d="M314.284 123.852H304.261V133.875H314.284V123.852Z" fill="black"/>
<path d="M324.307 123.852H314.284V133.875H324.307V123.852Z" fill="black"/>
<path d="M334.33 123.852H324.307V133.875H334.33V123.852Z" fill="black"/>
<path d="M354.375 123.852H344.352V133.875H354.375V123.852Z" fill="black"/>
<path d="M33.6477 133.875H23.625V143.898H33.6477V133.875Z" fill="black"/>
<path d="M43.6705 133.875H33.6477V143.898H43.6705V133.875Z" fill="black"/>
<path d="M73.7386 133.875H63.7159V143.898H73.7386V133.875Z" fill="black"/>
<path d="M83.7614 133.875H73.7386V143.898H83.7614V133.875Z" fill="black"/>
<path d="M113.83 133.875H103.807V143.898H113.83V133.875Z" fill="black"/>
<path d="M123.852 133.875H113.83V143.898H123.852V133.875Z" fill="black"/>
<path d="M153.92 133.875H143.898V143.898H153.92V133.875Z" fill="black"/>
<path d="M163.943 133.875H153.92V143.898H163.943V133.875Z" fill="black"/>
<path d="M173.966 133.875H163.943V143.898H173.966V133.875Z" fill="black"/>
<path d="M183.989 133.875H173.966V143.898H183.989V133.875Z" fill="black"/>
<path d="M194.011 133.875H183.989V143.898H194.011V133.875Z" fill="black"/>
<path d="M214.057 133.875H204.034V143.898H214.057V133.875Z" fill="black"/>
<path d="M224.08 133.875H214.057V143.898H224.08V133.875Z" fill="black"/>
<path d="M234.102 133.875H224.08V143.898H234.102V133.875Z" fill="black"/>
<path d="M244.125 133.875H234.102V143.898H244.125V133.875Z" fill="black"/>
<path d="M264.17 133.875H254.148V143.898H264.17V133.875Z" fill="black"/>
<path d="M274.193 133.875H264.17V143.898H274.193V133.875Z" fill="black"/>
<path d="M304.261 133.875H294.239V143.898H304.261V133.875Z" fill="black"/>
<path d="M314.284 133.875H304.261V143.898H314.284V133.875Z" fill="black"/>
<path d="M324.307 133.875H314.284V143.898H324.307V133.875Z" fill="black"/>
<path d="M344.352 133.875H334.33V143.898H344.352V133.875Z" fill="black"/>
<path d="M354.375 133.875H344.352V143.898H354.375V133.875Z" fill="black"/>
<path d="M33.6477 143.898H23.625V153.92H33.6477V143.898Z" fill="black"/>
<path d="M43.6705 143.898H33.6477V153.92H43.6705V143.898Z" fill="black"/>
<path d="M73.7386 143.898H63.7159V153.92H73.7386V143.898Z" fill="black"/>
<path d="M93.7841 143.898H83.7614V153.92H93.7841V143.898Z" fill="black"/>
<path d="M103.807 143.898H93.7841V153.92H103.807V143.898Z" fill="black"/>
<path d="M143.898 143.898H133.875V153.92H143.898V143.898Z" fill="black"/>
<path d="M153.92 143.898H143.898V153.92H153.92V143.898Z" fill="black"/>
<path d="M173.966 143.898H163.943V153.92H173.966V143.898Z" fill="black"/>
<path d="M183.989 143.898H173.966V153.92H183.989V143.898Z" fill="black"/>
<path d="M194.011 143.898H183.989V153.92H194.011V143.898Z" fill="black"/>
<path d="M204.034 143.898H194.011V153.92H204.034V143.898Z" fill="black"/>
<path d="M214.057 143.898H204.034V153.92H214.057V143.898Z" fill="black"/>
<path d="M224.08 143.898H214.057V153.92H224.08V143.898Z" fill="black"/>
<path d="M254.148 143.898H244.125V153.92H254.148V143.898Z" fill="black"/>
<path d="M284.216 143.898H274.193V153.92H284.216V143.898Z" fill="black"/>
<path d="M304.261 143.898H294.239V153.92H304.261V143.898Z" fill="black"/>
<path d="M324.307 143.898H314.284V153.92H324.307V143.898Z" fill="black"/>
<path d="M334.33 143.898H324.307V153.92H334.33V143.898Z" fill="black"/>
<path d="M53.6932 153.92H43.6705V163.943H53.6932V153.92Z" fill="black"/>
<path d="M73.7386 153.92H63.7159V163.943H73.7386V153.92Z" fill="black"/>
<path d="M123.852 153.92H113.83V163.943H123.852V153.92Z" fill="black"/>
<path d="M153.92 153.92H143.898V163.943H153.92V153.92Z" fill="black"/>
<path d="M163.943 153.92H153.92V163.943H163.943V153.92Z" fill="black"/>
<path d="M204.034 153.92H194.011V163.943H204.034V153.92Z" fill="black"/>
<path d="M214.057 153.92H204.034V163.943H214.057V153.92Z" fill="black"/>
<path d="M224.08 153.92H214.057V163.943H224.08V153.92Z" fill="black"/>
<path d="M264.17 153.92H254.148V163.943H264.17V153.92Z" fill="black"/>
<path d="M304.261 153.92H294.239V163.943H304.261V153.92Z" fill="black"/>
<path d="M314.284 153.92H304.261V163.943H314.284V153.92Z" fill="black"/>
<path d="M344.352 153.92H334.33V163.943H344.352V153.92Z" fill="black"/>
<path d="M354.375 153.92H344.352V163.943H354.375V153.92Z" fill="black"/>
<path d="M33.6477 163.943H23.625V173.966H33.6477V163.943Z" fill="black"/>
<path d="M63.7159 163.943H53.6932V173.966H63.7159V163.943Z" fill="black"/>
<path d="M73.7386 163.943H63.7159V173.966H73.7386V163.943Z" fill="black"/>
<path d="M93.7841 163.943H83.7614V173.966H93.7841V163.943Z" fill="black"/>
<path d="M103.807 163.943H93.7841V173.966H103.807V163.943Z" fill="black"/>
<path d="M113.83 163.943H103.807V173.966H113.83V163.943Z" fill="black"/>
<path d="M123.852 163.943H113.83V173.966H123.852V163.943Z" fill="black"/>
<path d="M143.898 163.943H133.875V173.966H143.898V163.943Z" fill="black"/>
<path d="M153.92 163.943H143.898V173.966H153.92V163.943Z" fill="black"/>
<path d="M183.989 163.943H173.966V173.966H183.989V163.943Z" fill="black"/>
<path d="M194.011 163.943H183.989V173.966H194.011V163.943Z" fill="black"/>
<path d="M214.057 163.943H204.034V173.966H214.057V163.943Z" fill="black"/>
<path d="M234.102 163.943H224.08V173.966H234.102V163.943Z" fill="black"/>
<path d="M264.17 163.943H254.148V173.966H264.17V163.943Z" fill="black"/>
<path d="M284.216 163.943H274.193V173.966H284.216V163.943Z" fill="black"/>
<path d="M294.239 163.943H284.216V173.966H294.239V163.943Z" fill="black"/>
<path d="M314.284 163.943H304.261V173.966H314.284V163.943Z" fill="black"/>
<path d="M324.307 163.943H314.284V173.966H324.307V163.943Z" fill="black"/>
<path d="M354.375 163.943H344.352V173.966H354.375V163.943Z" fill="black"/>
<path d="M33.6477 173.966H23.625V183.989H33.6477V173.966Z" fill="black"/>
<path d="M103.807 173.966H93.7841V183.989H103.807V173.966Z" fill="black"/>
<path d="M123.852 173.966H113.83V183.989H123.852V173.966Z" fill="black"/>
<path d="M133.875 173.966H123.852V183.989H133.875V173.966Z" fill="black"/>
<path d="M143.898 173.966H133.875V183.989H143.898V173.966Z" fill="black"/>
<path d="M153.92 173.966H143.898V183.989H153.92V173.966Z" fill="black"/>
<path d="M194.011 173.966H183.989V183.989H194.011V173.966Z" fill="black"/>
<path d="M204.034 173.966H194.011V183.989H204.034V173.966Z" fill="black"/>
<path d="M214.057 173.966H204.034V183.989H214.057V173.966Z" fill="black"/>
<path d="M224.08 173.966H214.057V183.989H224.08V173.966Z" fill="black"/>
<path d="M254.148 173.966H244.125V183.989H254.148V173.966Z" fill="black"/>
<path d="M264.17 173.966H254.148V183.989H264.17V173.966Z" fill="black"/>
<path d="M284.216 173.966H274.193V183.989H284.216V173.966Z" fill="black"/>
<path d="M294.239 173.966H284.216V183.989H294.239V173.966Z" fill="black"/>
<path d="M304.261 173.966H294.239V183.989H304.261V173.966Z" fill="black"/>
<path d="M314.284 173.966H304.261V183.989H314.284V173.966Z" fill="black"/>
<path d="M354.375 173.966H344.352V183.989H354.375V173.966Z" fill="black"/>
<path d="M33.6477 183.989H23.625V194.011H33.6477V183.989Z" fill="black"/>
<path d="M83.7614 183.989H73.7386V194.011H83.7614V183.989Z" fill="black"/>
<path d="M93.7841 183.989H83.7614V194.011H93.7841V183.989Z" fill="black"/>
<path d="M103.807 183.989H93.7841V194.011H103.807V183.989Z" fill="black"/>
<path d="M123.852 183.989H113.83V194.011H123.852V183.989Z" fill="black"/>
<path d="M143.898 183.989H133.875V194.011H143.898V183.989Z" fill="black"/>
<path d="M163.943 183.989H153.92V194.011H163.943V183.989Z" fill="black"/>
<path d="M173.966 183.989H163.943V194.011H173.966V183.989Z" fill="black"/>
<path d="M204.034 183.989H194.011V194.011H204.034V183.989Z" fill="black"/>
<path d="M214.057 183.989H204.034V194.011H214.057V183.989Z" fill="black"/>
<path d="M234.102 183.989H224.08V194.011H234.102V183.989Z" fill="black"/>
<path d="M264.17 183.989H254.148V194.011H264.17V183.989Z" fill="black"/>
<path d="M284.216 183.989H274.193V194.011H284.216V183.989Z" fill="black"/>
<path d="M294.239 183.989H284.216V194.011H294.239V183.989Z" fill="black"/>
<path d="M324.307 183.989H314.284V194.011H324.307V183.989Z" fill="black"/>
<path d="M334.33 183.989H324.307V194.011H334.33V183.989Z" fill="black"/>
<path d="M33.6477 194.011H23.625V204.034H33.6477V194.011Z" fill="black"/>
<path d="M43.6705 194.011H33.6477V204.034H43.6705V194.011Z" fill="black"/>
<path d="M63.7159 194.011H53.6932V204.034H63.7159V194.011Z" fill="black"/>
<path d="M73.7386 194.011H63.7159V204.034H73.7386V194.011Z" fill="black"/>
<path d="M103.807 194.011H93.7841V204.034H103.807V194.011Z" fill="black"/>
<path d="M113.83 194.011H103.807V204.034H113.83V194.011Z" fill="black"/>
<path d="M133.875 194.011H123.852V204.034H133.875V194.011Z" fill="black"/>
<path d="M143.898 194.011H133.875V204.034H143.898V194.011Z" fill="black"/>
<path d="M183.989 194.011H173.966V204.034H183.989V194.011Z" fill="black"/>
<path d="M194.011 194.011H183.989V204.034H194.011V194.011Z" fill="black"/>
<path d="M204.034 194.011H194.011V204.034H204.034V194.011Z" fill="black"/>
<path d="M254.148 194.011H244.125V204.034H254.148V194.011Z" fill="black"/>
<path d="M264.17 194.011H254.148V204.034H264.17V194.011Z" fill="black"/>
<path d="M274.193 194.011H264.17V204.034H274.193V194.011Z" fill="black"/>
<path d="M294.239 194.011H284.216V204.034H294.239V194.011Z" fill="black"/>
<path d="M304.261 194.011H294.239V204.034H304.261V194.011Z" fill="black"/>
<path d="M324.307 194.011H314.284V204.034H324.307V194.011Z" fill="black"/>
<path d="M334.33 194.011H324.307V204.034H334.33V194.011Z" fill="black"/>
<path d="M344.352 194.011H334.33V204.034H344.352V194.011Z" fill="black"/>
<path d="M354.375 194.011H344.352V204.034H354.375V194.011Z" fill="black"/>
<path d="M33.6477 204.034H23.625V214.057H33.6477V204.034Z" fill="black"/>
<path d="M63.7159 204.034H53.6932V214.057H63.7159V204.034Z" fill="black"/>
<path d="M73.7386 204.034H63.7159V214.057H73.7386V204.034Z" fill="black"/>
<path d="M93.7841 204.034H83.7614V214.057H93.7841V204.034Z" fill="black"/>
<path d="M103.807 204.034H93.7841V214.057H103.807V204.034Z" fill="black"/>
<path d="M123.852 204.034H113.83V214.057H123.852V204.034Z" fill="black"/>
<path d="M143.898 204.034H133.875V214.057H143.898V204.034Z" fill="black"/>
<path d="M153.92 204.034H143.898V214.057H153.92V204.034Z" fill="black"/>
<path d="M214.057 204.034H204.034V214.057H214.057V204.034Z" fill="black"/>
<path d="M244.125 204.034H234.102V214.057H244.125V204.034Z" fill="black"/>
<path d="M254.148 204.034H244.125V214.057H254.148V204.034Z" fill="black"/>
<path d="M264.17 204.034H254.148V214.057H264.17V204.034Z" fill="black"/>
<path d="M284.216 204.034H274.193V214.057H284.216V204.034Z" fill="black"/>
<path d="M304.261 204.034H294.239V214.057H304.261V204.034Z" fill="black"/>
<path d="M314.284 204.034H304.261V214.057H314.284V204.034Z" fill="black"/>
<path d="M344.352 204.034H334.33V214.057H344.352V204.034Z" fill="black"/>
<path d="M43.6705 214.057L33.6477 214.057V224.08H43.6705V214.057Z" fill="black"/>
<path d="M63.7159 214.057H53.6932V224.08H63.7159V214.057Z" fill="black"/>
<path d="M73.7386 214.057H63.7159V224.08H73.7386V214.057Z" fill="black"/>
<path d="M83.7614 214.057H73.7386V224.08H83.7614V214.057Z" fill="black"/>
<path d="M113.83 214.057H103.807V224.08H113.83V214.057Z" fill="black"/>
<path d="M143.898 214.057H133.875V224.08H143.898V214.057Z" fill="black"/>
<path d="M153.92 214.057H143.898V224.08H153.92V214.057Z" fill="black"/>
<path d="M163.943 214.057L153.92 214.057V224.08H163.943V214.057Z" fill="black"/>
<path d="M173.966 214.057H163.943V224.08H173.966V214.057Z" fill="black"/>
<path d="M183.989 214.057H173.966V224.08H183.989V214.057Z" fill="black"/>
<path d="M224.08 214.057L214.057 214.057L214.057 224.08H224.08V214.057Z" fill="black"/>
<path d="M244.125 214.057H234.102V224.08H244.125V214.057Z" fill="black"/>
<path d="M274.193 214.057H264.17V224.08H274.193V214.057Z" fill="black"/>
<path d="M324.307 214.057L314.284 214.057V224.08H324.307V214.057Z" fill="black"/>
<path d="M334.33 214.057L324.307 214.057V224.08H334.33V214.057Z" fill="black"/>
<path d="M344.352 214.057H334.33V224.08H344.352V214.057Z" fill="black"/>
<path d="M63.7159 224.08H53.6932V234.102H63.7159V224.08Z" fill="black"/>
<path d="M73.7386 224.08H63.7159V234.102H73.7386V224.08Z" fill="black"/>
<path d="M93.7841 224.08H83.7614V234.102H93.7841V224.08Z" fill="black"/>
<path d="M133.875 224.08H123.852V234.102H133.875V224.08Z" fill="black"/>
<path d="M153.92 224.08H143.898V234.102H153.92V224.08Z" fill="black"/>
<path d="M183.989 224.08H173.966V234.102H183.989V224.08Z" fill="black"/>
<path d="M214.057 224.08H204.034V234.102H214.057L214.057 224.08Z" fill="black"/>
<path d="M224.08 224.08H214.057L214.057 234.102H224.08V224.08Z" fill="black"/>
<path d="M244.125 224.08H234.102V234.102H244.125V224.08Z" fill="black"/>
<path d="M254.148 224.08H244.125V234.102H254.148V224.08Z" fill="black"/>
<path d="M274.193 224.08H264.17V234.102H274.193V224.08Z" fill="black"/>
<path d="M284.216 224.08H274.193V234.102H284.216V224.08Z" fill="black"/>
<path d="M294.239 224.08H284.216V234.102H294.239V224.08Z" fill="black"/>
<path d="M304.261 224.08H294.239V234.102H304.261V224.08Z" fill="black"/>
<path d="M314.284 224.08H304.261V234.102H314.284V224.08Z" fill="black"/>
<path d="M344.352 224.08H334.33V234.102H344.352V224.08Z" fill="black"/>
<path d="M354.375 224.08H344.352V234.102H354.375V224.08Z" fill="black"/>
<path d="M33.6477 234.102H23.625V244.125H33.6477V234.102Z" fill="black"/>
<path d="M43.6705 234.102H33.6477V244.125H43.6705V234.102Z" fill="black"/>
<path d="M63.7159 234.102H53.6932V244.125H63.7159V234.102Z" fill="black"/>
<path d="M83.7614 234.102H73.7386V244.125H83.7614V234.102Z" fill="black"/>
<path d="M103.807 234.102H93.7841V244.125H103.807V234.102Z" fill="black"/>
<path d="M113.83 234.102H103.807V244.125H113.83V234.102Z" fill="black"/>
<path d="M133.875 234.102H123.852V244.125H133.875V234.102Z" fill="black"/>
<path d="M143.898 234.102H133.875V244.125H143.898V234.102Z" fill="black"/>
<path d="M163.943 234.102H153.92V244.125H163.943V234.102Z" fill="black"/>
<path d="M183.989 234.102H173.966V244.125H183.989V234.102Z" fill="black"/>
<path d="M194.011 234.102H183.989V244.125H194.011V234.102Z" fill="black"/>
<path d="M204.034 234.102H194.011V244.125H204.034V234.102Z" fill="black"/>
<path d="M264.17 234.102H254.148V244.125H264.17V234.102Z" fill="black"/>
<path d="M274.193 234.102H264.17V244.125H274.193V234.102Z" fill="black"/>
<path d="M294.239 234.102H284.216V244.125H294.239V234.102Z" fill="black"/>
<path d="M304.261 234.102H294.239V244.125H304.261V234.102Z" fill="black"/>
<path d="M324.307 234.102H314.284V244.125H324.307V234.102Z" fill="black"/>
<path d="M344.352 234.102H334.33V244.125H344.352V234.102Z" fill="black"/>
<path d="M354.375 234.102H344.352V244.125H354.375V234.102Z" fill="black"/>
<path d="M43.6705 244.125H33.6477V254.148H43.6705V244.125Z" fill="black"/>
<path d="M53.6932 244.125H43.6705V254.148H53.6932V244.125Z" fill="black"/>
<path d="M93.7841 244.125H83.7614V254.148H93.7841V244.125Z" fill="black"/>
<path d="M103.807 244.125H93.7841V254.148H103.807V244.125Z" fill="black"/>
<path d="M133.875 244.125H123.852V254.148H133.875V244.125Z" fill="black"/>
<path d="M163.943 244.125H153.92V254.148H163.943V244.125Z" fill="black"/>
<path d="M183.989 244.125H173.966V254.148H183.989V244.125Z" fill="black"/>
<path d="M194.011 244.125H183.989V254.148H194.011V244.125Z" fill="black"/>
<path d="M224.08 244.125H214.057V254.148H224.08V244.125Z" fill="black"/>
<path d="M234.102 244.125H224.08V254.148H234.102V244.125Z" fill="black"/>
<path d="M254.148 244.125H244.125V254.148H254.148V244.125Z" fill="black"/>
<path d="M274.193 244.125H264.17V254.148H274.193V244.125Z" fill="black"/>
<path d="M294.239 244.125H284.216V254.148H294.239V244.125Z" fill="black"/>
<path d="M324.307 244.125H314.284V254.148H324.307V244.125Z" fill="black"/>
<path d="M354.375 244.125H344.352V254.148H354.375V244.125Z" fill="black"/>
<path d="M33.6477 254.148H23.625V264.17H33.6477V254.148Z" fill="black"/>
<path d="M53.6932 254.148H43.6705V264.17H53.6932V254.148Z" fill="black"/>
<path d="M63.7159 254.148H53.6932V264.17H63.7159V254.148Z" fill="black"/>
<path d="M103.807 254.148H93.7841V264.17H103.807V254.148Z" fill="black"/>
<path d="M123.852 254.148H113.83V264.17H123.852V254.148Z" fill="black"/>
<path d="M133.875 254.148H123.852V264.17H133.875V254.148Z" fill="black"/>
<path d="M143.898 254.148H133.875V264.17H143.898V254.148Z" fill="black"/>
<path d="M153.92 254.148H143.898V264.17H153.92V254.148Z" fill="black"/>
<path d="M194.011 254.148H183.989V264.17H194.011V254.148Z" fill="black"/>
<path d="M204.034 254.148H194.011V264.17H204.034V254.148Z" fill="black"/>
<path d="M214.057 254.148H204.034V264.17H214.057L214.057 254.148Z" fill="black"/>
<path d="M224.08 254.148H214.057L214.057 264.17H224.08V254.148Z" fill="black"/>
<path d="M254.148 254.148H244.125V264.17H254.148V254.148Z" fill="black"/>
<path d="M264.17 254.148H254.148V264.17H264.17V254.148Z" fill="black"/>
<path d="M284.216 254.148H274.193V264.17H284.216V254.148Z" fill="black"/>
<path d="M324.307 254.148H314.284V264.17H324.307V254.148Z" fill="black"/>
<path d="M334.33 254.148H324.307V264.17H334.33V254.148Z" fill="black"/>
<path d="M344.352 254.148H334.33V264.17H344.352V254.148Z" fill="black"/>
<path d="M354.375 254.148H344.352V264.17H354.375V254.148Z" fill="black"/>
<path d="M53.6932 264.17H43.6705V274.193H53.6932V264.17Z" fill="black"/>
<path d="M63.7159 264.17H53.6932V274.193H63.7159V264.17Z" fill="black"/>
<path d="M73.7386 264.17H63.7159V274.193H73.7386V264.17Z" fill="black"/>
<path d="M93.7841 264.17H83.7614V274.193H93.7841V264.17Z" fill="black"/>
<path d="M153.92 264.17H143.898V274.193H153.92V264.17Z" fill="black"/>
<path d="M183.989 264.17H173.966V274.193H183.989V264.17Z" fill="black"/>
<path d="M194.011 264.17H183.989V274.193H194.011V264.17Z" fill="black"/>
<path d="M224.08 264.17H214.057L214.057 274.193H224.08V264.17Z" fill="black"/>
<path d="M244.125 264.17H234.102V274.193H244.125V264.17Z" fill="black"/>
<path d="M254.148 264.17H244.125V274.193H254.148V264.17Z" fill="black"/>
<path d="M274.193 264.17H264.17V274.193H274.193V264.17Z" fill="black"/>
<path d="M284.216 264.17H274.193V274.193H284.216V264.17Z" fill="black"/>
<path d="M294.239 264.17H284.216V274.193H294.239V264.17Z" fill="black"/>
<path d="M304.261 264.17H294.239V274.193H304.261V264.17Z" fill="black"/>
<path d="M314.284 264.17H304.261V274.193H314.284V264.17Z" fill="black"/>
<path d="M324.307 264.17H314.284V274.193H324.307V264.17Z" fill="black"/>
<path d="M334.33 264.17H324.307V274.193H334.33V264.17Z" fill="black"/>
<path d="M113.83 274.193H103.807V284.216H113.83V274.193Z" fill="black"/>
<path d="M123.852 274.193H113.83V284.216H123.852V274.193Z" fill="black"/>
<path d="M143.898 274.193H133.875V284.216H143.898V274.193Z" fill="black"/>
<path d="M173.966 274.193H163.943V284.216H173.966V274.193Z" fill="black"/>
<path d="M183.989 274.193H173.966V284.216H183.989V274.193Z" fill="black"/>
<path d="M204.034 274.193H194.011V284.216H204.034V274.193Z" fill="black"/>
<path d="M224.08 274.193H214.057V284.216H224.08V274.193Z" fill="black"/>
<path d="M234.102 274.193H224.08V284.216H234.102V274.193Z" fill="black"/>
<path d="M244.125 274.193H234.102V284.216H244.125V274.193Z" fill="black"/>
<path d="M254.148 274.193H244.125V284.216H254.148V274.193Z" fill="black"/>
<path d="M264.17 274.193H254.148V284.216H264.17V274.193Z" fill="black"/>
<path d="M274.193 274.193H264.17V284.216H274.193V274.193Z" fill="black"/>
<path d="M314.284 274.193H304.261V284.216H314.284V274.193Z" fill="black"/>
<path d="M344.352 274.193H334.33V284.216H344.352V274.193Z" fill="black"/>
<path d="M354.375 274.193H344.352V284.216H354.375V274.193Z" fill="black"/>
<path d="M33.6477 284.216H23.625V294.239H33.6477V284.216Z" fill="black"/>
<path d="M43.6705 284.216H33.6477V294.239H43.6705V284.216Z" fill="black"/>
<path d="M53.6932 284.216H43.6705V294.239H53.6932V284.216Z" fill="black"/>
<path d="M63.7159 284.216H53.6932V294.239H63.7159V284.216Z" fill="black"/>
<path d="M73.7386 284.216H63.7159V294.239H73.7386V284.216Z" fill="black"/>
<path d="M83.7614 284.216H73.7386V294.239H83.7614V284.216Z" fill="black"/>
<path d="M93.7841 284.216H83.7614V294.239H93.7841V284.216Z" fill="black"/>
<path d="M113.83 284.216H103.807V294.239H113.83V284.216Z" fill="black"/>
<path d="M153.92 284.216H143.898V294.239H153.92V284.216Z" fill="black"/>
<path d="M173.966 284.216H163.943V294.239H173.966V284.216Z" fill="black"/>
<path d="M183.989 284.216H173.966V294.239H183.989V284.216Z" fill="black"/>
<path d="M194.011 284.216H183.989V294.239H194.011V284.216Z" fill="black"/>
<path d="M214.057 284.216H204.034V294.239H214.057L214.057 284.216Z" fill="black"/>
<path d="M234.102 284.216H224.08V294.239H234.102V284.216Z" fill="black"/>
<path d="M244.125 284.216H234.102V294.239H244.125V284.216Z" fill="black"/>
<path d="M264.17 284.216H254.148V294.239H264.17V284.216Z" fill="black"/>
<path d="M274.193 284.216H264.17V294.239H274.193V284.216Z" fill="black"/>
<path d="M294.239 284.216H284.216V294.239H294.239V284.216Z" fill="black"/>
<path d="M314.284 284.216H304.261V294.239H314.284V284.216Z" fill="black"/>
<path d="M324.307 284.216H314.284V294.239H324.307V284.216Z" fill="black"/>
<path d="M334.33 284.216H324.307V294.239H334.33V284.216Z" fill="black"/>
<path d="M344.352 284.216H334.33V294.239H344.352V284.216Z" fill="black"/>
<path d="M33.6477 294.239H23.625V304.261H33.6477V294.239Z" fill="black"/>
<path d="M93.7841 294.239H83.7614V304.261H93.7841V294.239Z" fill="black"/>
<path d="M113.83 294.239H103.807V304.261H113.83V294.239Z" fill="black"/>
<path d="M163.943 294.239H153.92V304.261H163.943V294.239Z" fill="black"/>
<path d="M173.966 294.239H163.943V304.261H173.966V294.239Z" fill="black"/>
<path d="M214.057 294.239H204.034V304.261H214.057V294.239Z" fill="black"/>
<path d="M224.08 294.239H214.057V304.261H224.08V294.239Z" fill="black"/>
<path d="M234.102 294.239H224.08V304.261H234.102V294.239Z" fill="black"/>
<path d="M244.125 294.239H234.102V304.261H244.125V294.239Z" fill="black"/>
<path d="M264.17 294.239H254.148V304.261H264.17V294.239Z" fill="black"/>
<path d="M274.193 294.239H264.17V304.261H274.193V294.239Z" fill="black"/>
<path d="M314.284 294.239H304.261V304.261H314.284V294.239Z" fill="black"/>
<path d="M324.307 294.239H314.284V304.261H324.307V294.239Z" fill="black"/>
<path d="M334.33 294.239H324.307V304.261H334.33V294.239Z" fill="black"/>
<path d="M33.6477 304.261H23.625V314.284H33.6477V304.261Z" fill="black"/>
<path d="M53.6932 304.261H43.6705V314.284H53.6932V304.261Z" fill="black"/>
<path d="M63.7159 304.261H53.6932V314.284H63.7159V304.261Z" fill="black"/>
<path d="M73.7386 304.261H63.7159V314.284H73.7386V304.261Z" fill="black"/>
<path d="M93.7841 304.261H83.7614V314.284H93.7841V304.261Z" fill="black"/>
<path d="M113.83 304.261H103.807V314.284H113.83V304.261Z" fill="black"/>
<path d="M153.92 304.261H143.898V314.284H153.92V304.261Z" fill="black"/>
<path d="M173.966 304.261H163.943V314.284H173.966V304.261Z" fill="black"/>
<path d="M183.989 304.261H173.966V314.284H183.989V304.261Z" fill="black"/>
<path d="M194.011 304.261H183.989V314.284H194.011V304.261Z" fill="black"/>
<path d="M234.102 304.261H224.08V314.284H234.102V304.261Z" fill="black"/>
<path d="M264.17 304.261H254.148V314.284H264.17V304.261Z" fill="black"/>
<path d="M274.193 304.261H264.17V314.284H274.193V304.261Z" fill="black"/>
<path d="M284.216 304.261H274.193V314.284H284.216V304.261Z" fill="black"/>
<path d="M294.239 304.261H284.216V314.284H294.239V304.261Z" fill="black"/>
<path d="M304.261 304.261H294.239V314.284H304.261V304.261Z" fill="black"/>
<path d="M314.284 304.261H304.261V314.284H314.284V304.261Z" fill="black"/>
<path d="M324.307 304.261H314.284V314.284H324.307V304.261Z" fill="black"/>
<path d="M334.33 304.261H324.307V314.284H334.33V304.261Z" fill="black"/>
<path d="M33.6477 314.284H23.625V324.307H33.6477V314.284Z" fill="black"/>
<path d="M53.6932 314.284H43.6705V324.307H53.6932V314.284Z" fill="black"/>
<path d="M63.7159 314.284H53.6932V324.307H63.7159V314.284Z" fill="black"/>
<path d="M73.7386 314.284H63.7159V324.307H73.7386V314.284Z" fill="black"/>
<path d="M93.7841 314.284H83.7614V324.307H93.7841V314.284Z" fill="black"/>
<path d="M113.83 314.284H103.807V324.307H113.83V314.284Z" fill="black"/>
<path d="M123.852 314.284H113.83V324.307H123.852V314.284Z" fill="black"/>
<path d="M133.875 314.284H123.852V324.307H133.875V314.284Z" fill="black"/>
<path d="M153.92 314.284H143.898V324.307H153.92V314.284Z" fill="black"/>
<path d="M163.943 314.284H153.92V324.307H163.943V314.284Z" fill="black"/>
<path d="M204.034 314.284H194.011V324.307H204.034V314.284Z" fill="black"/>
<path d="M214.057 314.284H204.034V324.307H214.057V314.284Z" fill="black"/>
<path d="M234.102 314.284H224.08V324.307H234.102V314.284Z" fill="black"/>
<path d="M254.148 314.284H244.125V324.307H254.148V314.284Z" fill="black"/>
<path d="M294.239 314.284H284.216V324.307H294.239V314.284Z" fill="black"/>
<path d="M314.284 314.284H304.261V324.307H314.284V314.284Z" fill="black"/>
<path d="M354.375 314.284H344.352V324.307H354.375V314.284Z" fill="black"/>
<path d="M33.6477 324.307H23.625V334.33H33.6477V324.307Z" fill="black"/>
<path d="M53.6932 324.307H43.6705V334.33H53.6932V324.307Z" fill="black"/>
<path d="M63.7159 324.307H53.6932V334.33H63.7159V324.307Z" fill="black"/>
<path d="M73.7386 324.307H63.7159V334.33H73.7386V324.307Z" fill="black"/>
<path d="M93.7841 324.307H83.7614V334.33H93.7841V324.307Z" fill="black"/>
<path d="M123.852 324.307H113.83V334.33H123.852V324.307Z" fill="black"/>
<path d="M204.034 324.307H194.011V334.33H204.034V324.307Z" fill="black"/>
<path d="M244.125 324.307H234.102V334.33H244.125V324.307Z" fill="black"/>
<path d="M254.148 324.307H244.125V334.33H254.148V324.307Z" fill="black"/>
<path d="M284.216 324.307H274.193V334.33H284.216V324.307Z" fill="black"/>
<path d="M33.6477 334.33H23.625V344.352H33.6477V334.33Z" fill="black"/>
<path d="M93.7841 334.33H83.7614V344.352H93.7841V334.33Z" fill="black"/>
<path d="M123.852 334.33H113.83V344.352H123.852V334.33Z" fill="black"/>
<path d="M133.875 334.33H123.852V344.352H133.875V334.33Z" fill="black"/>
<path d="M143.898 334.33H133.875V344.352H143.898V334.33Z" fill="black"/>
<path d="M153.92 334.33H143.898V344.352H153.92V334.33Z" fill="black"/>
<path d="M173.966 334.33H163.943V344.352H173.966V334.33Z" fill="black"/>
<path d="M194.011 334.33H183.989V344.352H194.011V334.33Z" fill="black"/>
<path d="M214.057 334.33H204.034V344.352H214.057V334.33Z" fill="black"/>
<path d="M224.08 334.33H214.057V344.352H224.08V334.33Z" fill="black"/>
<path d="M234.102 334.33H224.08V344.352H234.102V334.33Z" fill="black"/>
<path d="M244.125 334.33H234.102V344.352H244.125V334.33Z" fill="black"/>
<path d="M254.148 334.33H244.125V344.352H254.148V334.33Z" fill="black"/>
<path d="M274.193 334.33H264.17V344.352H274.193V334.33Z" fill="black"/>
<path d="M294.239 334.33H284.216V344.352H294.239V334.33Z" fill="black"/>
<path d="M304.261 334.33H294.239V344.352H304.261V334.33Z" fill="black"/>
<path d="M324.307 334.33H314.284V344.352H324.307V334.33Z" fill="black"/>
<path d="M33.6477 344.352H23.625V354.375H33.6477V344.352Z" fill="black"/>
<path d="M43.6705 344.352H33.6477V354.375H43.6705V344.352Z" fill="black"/>
<path d="M53.6932 344.352H43.6705V354.375H53.6932V344.352Z" fill="black"/>
<path d="M63.7159 344.352H53.6932V354.375H63.7159V344.352Z" fill="black"/>
<path d="M73.7386 344.352H63.7159V354.375H73.7386V344.352Z" fill="black"/>
<path d="M83.7614 344.352H73.7386V354.375H83.7614V344.352Z" fill="black"/>
<path d="M93.7841 344.352H83.7614V354.375H93.7841V344.352Z" fill="black"/>
<path d="M113.83 344.352H103.807V354.375H113.83V344.352Z" fill="black"/>
<path d="M224.08 344.352H214.057L214.057 354.375H224.08V344.352Z" fill="black"/>
<path d="M234.102 344.352H224.08V354.375H234.102V344.352Z" fill="black"/>
<path d="M304.261 344.352H294.239V354.375H304.261V344.352Z" fill="black"/>
<path d="M354.375 344.352H344.352V354.375H354.375V344.352Z" fill="black"/>
</g>
<defs>
<clipPath id="clip0_107_758">
<rect width="378" height="378" fill="white"/>
</clipPath>
</defs>
</svg>
